<svg width="48" height="43" viewBox="0 0 48 43" fill="none" xmlns="http://www.w3.org/2000/svg">
<g clip-path="url(#clip0)">
<path d="M1.6 41.5667H0.800003V42.2833H1.6V41.5667ZM20.8 15.7667L21.44 15.3367C21.2842 15.1506 21.0373 15.0438 20.7778 15.0503C20.5182 15.0567 20.2784 15.1756 20.1344 15.3691L20.8 15.7667ZM30.4 27.2333L29.76 27.6633C29.9131 27.8461 30.1542 27.9526 30.4093 27.95C30.6643 27.9473 30.9027 27.8358 31.051 27.6499L30.4 27.2333ZM0.800003 0V41.5667H2.4V0H0.800003ZM1.6 42.2833H48V40.85H1.6V42.2833ZM8.66565 33.3641L21.4656 16.1643L20.1344 15.3691L7.33436 32.5692L8.66565 33.3641ZM20.16 16.1967L29.76 27.6633L31.04 26.8033L21.44 15.3367L20.16 16.1967ZM31.051 27.6499L47.051 7.58322L45.749 6.75011L29.749 26.8168L31.051 27.6499Z" fill="white"/>
</g>
<defs>
<clipPath id="clip0">
<rect width="48" height="43" fill="white"/>
</clipPath>
</defs>
</svg>
