<svg width="49" height="46" viewBox="0 0 49 46" fill="none" xmlns="http://www.w3.org/2000/svg">
<g clip-path="url(#clip0)">
<path d="M27.8272 3.12347C16.1557 3.12347 6.6644 12.043 6.6644 23V23.0657L2.47384 17.1413C2.06379 16.5591 1.22367 16.3995 0.603592 16.7845C-0.01649 17.1694 -0.186513 17.9581 0.223542 18.5402L6.30435 27.1312C6.52438 27.441 6.87442 27.6382 7.26448 27.6851C7.32448 27.6945 7.37449 27.6945 7.4345 27.6945C7.76454 27.6945 8.08458 27.5818 8.33462 27.3659L16.7857 20.2208C17.3358 19.7514 17.3858 18.9533 16.8858 18.4275C16.3857 17.9112 15.5356 17.8642 14.9755 18.3337L9.36475 23.0939V23C9.36475 13.4326 17.6459 5.6585 27.8272 5.6585C38.0086 5.6585 46.2997 13.4326 46.2997 23C46.2997 32.5674 38.0186 40.3415 27.8372 40.3415C22.9065 40.3415 18.2659 38.5388 14.7855 35.262C14.2554 34.7644 13.4053 34.7644 12.8752 35.262C12.3451 35.7596 12.3451 36.5577 12.8752 37.0553C16.8758 40.8109 22.1865 42.8765 27.8372 42.8765C39.4987 42.8765 49 33.9663 49 23C49 12.0336 39.4987 3.12347 27.8272 3.12347Z" fill="white"/>
</g>
<defs>
<clipPath id="clip0">
<rect width="49" height="46" fill="white"/>
</clipPath>
</defs>
</svg>
