<svg width="263" height="265" viewBox="0 0 263 265" fill="none" xmlns="http://www.w3.org/2000/svg">
<rect x="-1.52588e-05" width="263" height="265" fill="black" fill-opacity="0.69"/>
<g clip-path="url(#clip0)">
<path d="M172.591 215.563C173.313 215.582 174.014 215.318 174.68 214.804L210.101 200.614C210.786 200.34 210.819 199.201 210.151 198.888L175.611 182.669C174.976 182.117 174.292 181.813 173.57 181.791C173.568 181.79 173.566 181.79 173.563 181.79L173.563 181.79C169.392 181.669 166.889 190.303 166.652 198.491C166.415 206.678 168.413 215.443 172.584 215.564L172.584 215.564C172.587 215.564 172.589 215.563 172.591 215.563Z" fill="black"/>
<path d="M168.997 198.582C169.26 189.491 171.975 183.918 173.886 183.724L175.306 184.391C175.33 184.402 175.352 184.416 175.377 184.424L207.931 199.711L174.546 213.086C174.521 213.093 174.498 213.106 174.474 213.115L173.017 213.698C171.121 213.394 168.733 207.673 168.997 198.582Z" fill="#BBDEFB"/>
<path d="M168.997 198.582C169.26 189.491 171.975 183.918 173.886 183.724L175.306 184.391C175.33 184.402 175.352 184.416 175.377 184.424L207.931 199.711L174.546 213.086C174.521 213.093 174.498 213.106 174.474 213.115L173.017 213.698C171.121 213.394 168.733 207.673 168.997 198.582Z" fill="#FF0404"/>
<path opacity="0.1" d="M173.038 213.69L174.474 213.115C174.498 213.106 174.521 213.093 174.546 213.086L174.635 213.05C176.735 211.192 178.383 205.552 178.577 198.836C178.77 192.202 177.484 186.542 175.536 184.499L175.377 184.424C175.352 184.416 175.33 184.402 175.306 184.391L173.886 183.724C171.975 183.918 169.26 189.491 168.997 198.582C168.737 207.549 171.055 213.227 172.938 213.672C172.972 213.676 173.004 213.688 173.038 213.69Z" fill="black"/>
<path d="M179.12 191.602C178.934 190.299 178.689 189.085 178.389 187.994C178.252 187.495 177.744 187.205 177.257 187.345C176.861 187.46 176.599 187.823 176.588 188.223C176.585 188.316 176.596 188.41 176.622 188.504C176.9 189.517 177.129 190.65 177.303 191.873C177.376 192.387 177.841 192.741 178.343 192.666C178.845 192.59 179.187 192.09 179.12 191.602Z" fill="black"/>
<path d="M177.753 209.68C178.116 208.607 178.432 207.411 178.694 206.124C178.795 205.612 178.48 205.12 177.983 205.014C177.487 204.908 177.001 205.235 176.898 205.742C176.651 206.952 176.355 208.072 176.019 209.069C175.987 209.161 175.971 209.256 175.968 209.348C175.957 209.747 176.197 210.125 176.586 210.263C177.065 210.43 177.587 210.17 177.753 209.68Z" fill="black"/>
<path d="M179.406 200.696C179.487 199.504 179.524 198.251 179.513 197.061C179.509 196.542 179.094 196.126 178.588 196.13C178.082 196.135 177.66 196.532 177.678 197.077C177.687 198.229 177.652 199.428 177.575 200.57C177.574 200.582 177.573 200.595 177.573 200.606C177.558 201.108 177.934 201.536 178.427 201.57C178.933 201.605 179.371 201.212 179.406 200.696Z" fill="black"/>
<path d="M172.591 215.563C173.313 215.582 174.014 215.318 174.68 214.804L210.101 200.614C210.786 200.34 210.819 199.201 210.151 198.888L175.611 182.669C174.976 182.117 174.292 181.813 173.57 181.791C173.568 181.79 173.566 181.79 173.563 181.79L173.563 181.79C169.392 181.669 166.889 190.303 166.652 198.491C166.415 206.678 168.413 215.443 172.584 215.564L172.584 215.564C172.587 215.564 172.589 215.563 172.591 215.563Z" fill="url(#paint0_linear)"/>
</g>
<g clip-path="url(#clip1)">
<path d="M112.791 92.9378C113.07 92.2718 113.078 91.5232 112.84 90.7161L112.448 52.5607C112.441 51.8224 111.391 51.3787 110.857 51.8886L83.226 78.2047C82.4816 78.5966 81.9504 79.1239 81.6676 79.7885C81.6665 79.7908 81.665 79.7926 81.664 79.7949L81.6639 79.7952C80.0399 83.639 87.1813 89.1001 94.7261 92.2877C102.271 95.4753 111.165 96.7889 112.788 92.9451L112.789 92.9448C112.79 92.9424 112.79 92.94 112.791 92.9378Z" fill="#303C42"/>
<path d="M95.6612 90.1357C87.2834 86.5961 83.0729 82.0462 83.5845 80.195L84.7208 79.1128C84.7394 79.0942 84.7601 79.0791 84.777 79.0593L110.82 54.2557L111.19 90.2186C111.188 90.2444 111.191 90.2698 111.191 90.2962L111.207 91.8653C110.236 93.5225 104.039 93.6752 95.6612 90.1357Z" fill="#02FF95"/>
<path d="M95.6612 90.1357C87.2834 86.5961 83.0729 82.0462 83.5845 80.195L84.7208 79.1128C84.7394 79.0942 84.7601 79.0791 84.777 79.0593L110.82 54.2557L111.19 90.2186C111.188 90.2444 111.191 90.2698 111.191 90.2962L111.207 91.8653C110.236 93.5225 104.039 93.6752 95.6612 90.1357Z" fill="#02FF95"/>
<path opacity="0.1" d="M111.207 91.8428L111.191 90.2961C111.191 90.2698 111.187 90.2444 111.19 90.2185L111.189 90.122C110.218 87.4915 105.558 83.9126 99.3691 81.2979C93.2554 78.715 87.5139 77.862 84.9043 78.9379L84.7769 79.0593C84.7601 79.079 84.7394 79.0942 84.7207 79.1128L83.5844 80.195C83.0728 82.0462 87.2833 86.5961 95.6611 90.1356C103.925 93.6269 110.056 93.5229 111.154 91.929C111.17 91.8994 111.193 91.8734 111.207 91.8428Z" fill="black"/>
<path d="M92.8235 78.1715C91.5411 77.8719 90.3208 77.6609 89.1955 77.5454C88.6806 77.4923 88.2267 77.86 88.1806 78.3649C88.1444 78.7758 88.3878 79.151 88.7559 79.3065C88.8421 79.3429 88.9334 79.3669 89.0307 79.3768C90.0758 79.4846 91.2144 79.6816 92.4169 79.963C92.9223 80.0811 93.4216 79.7755 93.5331 79.2807C93.6448 78.7851 93.3027 78.2855 92.8235 78.1715Z" fill="#303C42"/>
<path d="M109.177 85.9955C108.309 85.2684 107.309 84.5404 106.204 83.8295C105.763 83.5498 105.191 83.6652 104.912 84.0901C104.633 84.5142 104.762 85.0853 105.197 85.3654C106.236 86.0339 107.172 86.7155 107.979 87.3903C108.054 87.4531 108.137 87.5026 108.221 87.5383C108.589 87.6938 109.028 87.6067 109.297 87.2944C109.628 86.9085 109.574 86.3277 109.177 85.9955Z" fill="#303C42"/>
<path d="M101.403 81.1998C100.322 80.6924 99.1669 80.2036 98.0532 79.7827C97.568 79.5981 97.0305 79.8341 96.8503 80.3077C96.6721 80.7812 96.8893 81.3176 97.4038 81.4989C98.481 81.9073 99.585 82.3747 100.622 82.8604C100.633 82.8662 100.645 82.8712 100.655 82.8755C101.118 83.0709 101.652 82.8755 101.863 82.4284C102.078 81.9698 101.871 81.4191 101.403 81.1998Z" fill="#303C42"/>
<path d="M112.791 92.9378C113.07 92.2718 113.078 91.5232 112.84 90.7161L112.448 52.5607C112.441 51.8224 111.391 51.3787 110.857 51.8886L83.226 78.2047C82.4816 78.5966 81.9504 79.1239 81.6676 79.7885C81.6665 79.7908 81.665 79.7926 81.664 79.7949L81.6639 79.7952C80.0399 83.639 87.1813 89.1001 94.7261 92.2877C102.271 95.4753 111.165 96.7889 112.788 92.9451L112.789 92.9448C112.79 92.9424 112.79 92.94 112.791 92.9378Z" fill="url(#paint1_linear)"/>
</g>
<path d="M93.1555 88.3623L50.3756 198.08C49.8297 199.48 50.5112 201.058 51.9043 201.621C53.3256 202.195 54.9418 201.494 55.4929 200.063L97.8266 90.1727C98.3182 88.8966 97.6955 87.4621 96.4275 86.9498C95.1338 86.4271 93.6624 87.0623 93.1555 88.3623Z" fill="#2AFFA6" stroke="black"/>
<path d="M171.975 196.01L52.9681 196.622C51.8731 196.628 50.9862 197.513 50.9785 198.608L50.968 200.099C50.9601 201.216 51.8691 202.124 52.9863 202.113L171.997 201.018C173.089 201.008 173.971 200.124 173.979 199.032L173.986 198.024C173.994 196.91 173.09 196.005 171.975 196.01Z" fill="#FF0404" stroke="black"/>
<defs>
<linearGradient id="paint0_linear" x1="191.608" y1="189.377" x2="176.879" y2="218.092" gradientUnits="userSpaceOnUse">
<stop stop-color="white" stop-opacity="0.2"/>
<stop offset="1" stop-color="white" stop-opacity="0"/>
</linearGradient>
<linearGradient id="paint1_linear" x1="95.2745" y1="65.7252" x2="116.702" y2="89.8574" gradientUnits="userSpaceOnUse">
<stop stop-color="white" stop-opacity="0.2"/>
<stop offset="1" stop-color="white" stop-opacity="0"/>
</linearGradient>
<clipPath id="clip0">
<rect width="45" height="44" fill="white" transform="translate(211.285 177.275) rotate(91.6604)"/>
</clipPath>
<clipPath id="clip1">
<rect width="45" height="44" fill="white" transform="translate(91.124 43) rotate(22.9036)"/>
</clipPath>
</defs>
</svg>
