<svg width="184" height="175" viewBox="0 0 184 175" fill="none" xmlns="http://www.w3.org/2000/svg">
<rect width="184" height="175" fill="#FFFBFB"/>
<path d="M154.465 122.069C155.837 120.709 155.847 118.493 154.485 117.12L132.306 94.7462C130.945 93.3732 128.728 93.3633 127.356 94.724C125.983 96.0847 125.974 98.3007 127.335 99.6737L147.05 119.561L127.168 139.271C125.796 140.632 125.786 142.848 127.147 144.221C128.509 145.594 130.725 145.604 132.097 144.243L154.465 122.069ZM54.2074 122.645L151.985 123.083L152.015 116.083L54.2369 115.645L54.2074 122.645Z" fill="#EA1F1F"/>
<path d="M25.4521 31.1098C23.7077 30.324 21.6435 31.1303 20.8415 32.9106L7.77301 61.9225C6.97106 63.7028 7.73505 65.783 9.47944 66.5688C11.2238 67.3546 13.288 66.5483 14.09 64.768L25.7064 38.9796L50.9744 50.3616C52.7187 51.1474 54.783 50.3412 55.5849 48.5609C56.3869 46.7805 55.6229 44.7003 53.8785 43.9146L25.4521 31.1098ZM57.3989 115.122L27.2602 33.06L20.7399 35.6067L50.8786 117.669L57.3989 115.122Z" fill="#3D2699"/>
<path d="M53.2499 116.706L61.461 106.773" stroke="black" stroke-width="4"/>
<path d="M53.2499 116.706L61.461 106.773" stroke="black" stroke-width="4"/>
<path d="M113.684 46.8657L121.895 36.9328" stroke="black" stroke-width="4"/>
<path d="M102.517 59.2817L110.728 49.3489" stroke="black" stroke-width="4"/>
<path d="M91.3495 72.9394L99.5607 63.0065" stroke="black" stroke-width="4"/>
<path d="M78.2117 87.2178L86.4228 77.285" stroke="black" stroke-width="4"/>
<path d="M64.417 103.359L72.6282 93.4258" stroke="black" stroke-width="4"/>
<ellipse cx="54.0071" cy="116.748" rx="9.53404" ry="9.25234" fill="black"/>
<path d="M108.429 33.5184L129.778 27L126.822 47.4865" stroke="black" stroke-width="4"/>
</svg>
